{"asset":{"generator":"Foundry Modo 17.1v1","version":"2.0"},"extensionsUsed":["KHR_texture_transform"],"scene":0,"scenes":[{"nodes":[0,1,2,3,4,5,6,7,8,9,21]}],"nodes":[{"name":"HeelPanel","mesh":0},{"name":"intererior","mesh":1},{"name":"PLACARD","mesh":2},{"name":"Lace Geometry (4)","mesh":3},{"name":"tongue","mesh":4},{"name":"PIPING","mesh":5},{"name":"ankleDisc","mesh":6},{"name":"soleRibsr2","mesh":7},{"name":"upperPanels","mesh":8},{"name":"stitches","children":[10,11,12,13,14,15,16,17,18,19,20]},{"name":"Stitches_newSole (3)","mesh":9},{"name":"Texture Group (5)"},{"name":"Stitches_saddleForm","mesh":10},{"name":"Texture Group (6)"},{"name":"Texture Group"},{"name":"Texture Group (7)"},{"name":"Texture Group (8)"},{"name":"Texture Group (3)"},{"name":"Texture Group (2)"},{"name":"Texture Group (9)"},{"name":"Texture Group (4)"},{"name":"IDF_Scout_HI_REZ_0001","children":[22]},{"name":"Upper","children":[23,24,25]},{"name":"inSole","mesh":11},{"name":"eyelets","mesh":12},{"name":"eyeleteStay","mesh":13}],"meshes":[{"primitives":[{"indices":1,"mode":4,"material":1,"attributes":{"POSITION":0,"NORMAL":2,"TEXCOORD_0":3}}]},{"primitives":[{"indices":5,"mode":4,"material":2,"attributes":{"POSITION":4,"NORMAL":6,"TEXCOORD_0":7}}]},{"primitives":[{"indices":9,"mode":4,"material":3,"attributes":{"POSITION":8,"NORMAL":10,"TEXCOORD_0":11}}]},{"primitives":[{"indices":13,"mode":4,"material":4,"attributes":{"POSITION":12,"NORMAL":14,"TEXCOORD_0":15}}]},{"primitives":[{"indices":17,"mode":4,"material":5,"attributes":{"POSITION":16,"NORMAL":18,"TEXCOORD_0":19}}]},{"primitives":[{"indices":21,"mode":4,"material":6,"attributes":{"POSITION":20,"NORMAL":22,"TEXCOORD_0":23}}]},{"primitives":[{"indices":25,"mode":4,"material":7,"attributes":{"POSITION":24,"NORMAL":26,"TEXCOORD_0":27}}]},{"primitives":[{"indices":29,"mode":4,"material":8,"attributes":{"POSITION":28,"NORMAL":30,"TEXCOORD_0":31}}]},{"primitives":[{"indices":33,"mode":4,"material":2,"attributes":{"POSITION":32,"NORMAL":34,"TEXCOORD_0":35}},{"indices":37,"mode":4,"material":9,"attributes":{"POSITION":36,"NORMAL":38,"TEXCOORD_0":39}}]},{"primitives":[{"indices":41,"mode":4,"material":10,"attributes":{"POSITION":40,"NORMAL":42,"TEXCOORD_0":43,"TEXCOORD_1":44}}]},{"primitives":[{"indices":46,"mode":4,"material":11,"attributes":{"POSITION":45,"NORMAL":47,"TEXCOORD_0":48,"TEXCOORD_1":49}}]},{"primitives":[{"indices":51,"mode":4,"material":12,"attributes":{"POSITION":50,"NORMAL":52,"TEXCOORD_0":53}}]},{"primitives":[{"indices":55,"mode":4,"material":13,"attributes":{"POSITION":54,"NORMAL":56,"TEXCOORD_0":57,"TEXCOORD_1":58,"TEXCOORD_2":59}}]},{"primitives":[{"indices":61,"mode":4,"material":14,"attributes":{"POSITION":60,"NORMAL":62,"TEXCOORD_0":63,"TEXCOORD_1":64,"TEXCOORD_2":65,"TEXCOORD_3":66,"TEXCOORD_4":67,"TEXCOORD_5":68}}]}],"buffers":[{"byteLength":17412572,"uri":"boot.bin"}],"bufferViews":[{"buffer":0,"byteLength":10644},{"buffer":0,"byteLength":19920,"byteOffset":10644},{"buffer":0,"byteLength":10644,"byteOffset":30564},{"buffer":0,"byteLength":7096,"byteOffset":41208},{"buffer":0,"byteLength":27696,"byteOffset":48304},{"buffer":0,"byteLength":51552,"byteOffset":76000},{"buffer":0,"byteLength":27696,"byteOffset":127552},{"buffer":0,"byteLength":18464,"byteOffset":155248},{"buffer":0,"byteLength":7044,"byteOffset":173712},{"buffer":0,"byteLength":13248,"byteOffset":180756},{"buffer":0,"byteLength":7044,"byteOffset":194004},{"buffer":0,"byteLength":4696,"byteOffset":201048},{"buffer":0,"byteLength":970368,"byteOffset":205744},{"buffer":0,"byteLength":1922976,"byteOffset":1176112},{"buffer":0,"byteLength":970368,"byteOffset":3099088},{"buffer":0,"byteLength":646912,"byteOffset":4069456},{"buffer":0,"byteLength":35352,"byteOffset":4716368},{"buffer":0,"byteLength":70656,"byteOffset":4751720},{"buffer":0,"byteLength":35352,"byteOffset":4822376},{"buffer":0,"byteLength":23568,"byteOffset":4857728},{"buffer":0,"byteLength":102624,"byteOffset":4881296},{"buffer":0,"byteLength":197244,"byteOffset":4983920},{"buffer":0,"byteLength":102624,"byteOffset":5181164},{"buffer":0,"byteLength":68416,"byteOffset":5283788},{"buffer":0,"byteLength":48408,"byteOffset":5352204},{"buffer":0,"byteLength":96768,"byteOffset":5400612},{"buffer":0,"byteLength":48408,"byteOffset":5497380},{"buffer":0,"byteLength":32272,"byteOffset":5545788},{"buffer":0,"byteLength":444576,"byteOffset":5578060},{"buffer":0,"byteLength":831936,"byteOffset":6022636},{"buffer":0,"byteLength":444576,"byteOffset":6854572},{"buffer":0,"byteLength":296384,"byteOffset":7299148},{"buffer":0,"byteLength":16860,"byteOffset":7595532},{"buffer":0,"byteLength":26856,"byteOffset":7612392},{"buffer":0,"byteLength":16860,"byteOffset":7639248},{"buffer":0,"byteLength":11240,"byteOffset":7656108},{"buffer":0,"byteLength":35256,"byteOffset":7667348},{"buffer":0,"byteLength":62448,"byteOffset":7702604},{"buffer":0,"byteLength":35256,"byteOffset":7765052},{"buffer":0,"byteLength":23504,"byteOffset":7800308},{"buffer":0,"byteLength":437052,"byteOffset":7823812},{"buffer":0,"byteLength":731808,"byteOffset":8260864},{"buffer":0,"byteLength":437052,"byteOffset":8992672},{"buffer":0,"byteLength":291368,"byteOffset":9429724},{"buffer":0,"byteLength":291368,"byteOffset":9721092},{"buffer":0,"byteLength":1009476,"byteOffset":10012460},{"buffer":0,"byteLength":1594560,"byteOffset":11021936},{"buffer":0,"byteLength":1009476,"byteOffset":12616496},{"buffer":0,"byteLength":672984,"byteOffset":13625972},{"buffer":0,"byteLength":672984,"byteOffset":14298956},{"buffer":0,"byteLength":24408,"byteOffset":14971940},{"buffer":0,"byteLength":48768,"byteOffset":14996348},{"buffer":0,"byteLength":24408,"byteOffset":15045116},{"buffer":0,"byteLength":16272,"byteOffset":15069524},{"buffer":0,"byteLength":309996,"byteOffset":15085796},{"buffer":0,"byteLength":589824,"byteOffset":15395792},{"buffer":0,"byteLength":309996,"byteOffset":15985616},{"buffer":0,"byteLength":206664,"byteOffset":16295612},{"buffer":0,"byteLength":206664,"byteOffset":16502276},{"buffer":0,"byteLength":206664,"byteOffset":16708940},{"buffer":0,"byteLength":63588,"byteOffset":16915604},{"buffer":0,"byteLength":115440,"byteOffset":16979192},{"buffer":0,"byteLength":63588,"byteOffset":17094632},{"buffer":0,"byteLength":42392,"byteOffset":17158220},{"buffer":0,"byteLength":42392,"byteOffset":17200612},{"buffer":0,"byteLength":42392,"byteOffset":17243004},{"buffer":0,"byteLength":42392,"byteOffset":17285396},{"buffer":0,"byteLength":42392,"byteOffset":17327788},{"buffer":0,"byteLength":42392,"byteOffset":17370180}],"accessors":[{"bufferView":0,"type":"VEC3","componentType":5126,"count":887,"min":[-0.04106290638446808,0.016906125470995904,-0.1450561285018921],"max":[0.042209651321172717,0.16008874773979188,-0.08535149693489075]},{"bufferView":1,"type":"SCALAR","componentType":5125,"count":4980},{"bufferView":2,"type":"VEC3","componentType":5126,"count":887},{"bufferView":3,"type":"VEC2","componentType":5126,"count":887},{"bufferView":4,"type":"VEC3","componentType":5126,"count":2308,"min":[-0.039698872715234759,0.009982256218791008,-0.1391427367925644],"max":[0.05705706402659416,0.036528222262859347,0.13037994503974915]},{"bufferView":5,"type":"SCALAR","componentType":5125,"count":12888},{"bufferView":6,"type":"VEC3","componentType":5126,"count":2308},{"bufferView":7,"type":"VEC2","componentType":5126,"count":2308},{"bufferView":8,"type":"VEC3","componentType":5126,"count":587,"min":[-0.010331297293305397,0.1426534354686737,-0.03959355503320694],"max":[0.02073291689157486,0.16318976879119874,-0.025560058653354646]},{"bufferView":9,"type":"SCALAR","componentType":5125,"count":3312},{"bufferView":10,"type":"VEC3","componentType":5126,"count":587},{"bufferView":11,"type":"VEC2","componentType":5126,"count":587},{"bufferView":12,"type":"VEC3","componentType":5126,"count":80864,"min":[-0.026402253657579423,0.06446743756532669,-0.047661192715168],"max":[0.037593018263578418,0.14399728178977967,0.030138211324810983]},{"bufferView":13,"type":"SCALAR","componentType":5125,"count":480744},{"bufferView":14,"type":"VEC3","componentType":5126,"count":80864},{"bufferView":15,"type":"VEC2","componentType":5126,"count":80864},{"bufferView":16,"type":"VEC3","componentType":5126,"count":2946,"min":[-0.021887999027967454,0.0669432282447815,-0.05681382864713669],"max":[0.031049415469169618,0.17018017172813416,0.026167355477809907]},{"bufferView":17,"type":"SCALAR","componentType":5125,"count":17664},{"bufferView":18,"type":"VEC3","componentType":5126,"count":2946},{"bufferView":19,"type":"VEC2","componentType":5126,"count":2946},{"bufferView":20,"type":"VEC3","componentType":5126,"count":8552,"min":[-0.04200737923383713,0.014787930995225907,-0.12996028363704682],"max":[0.055002205073833469,0.16581912338733674,0.043893396854400638]},{"bufferView":21,"type":"SCALAR","componentType":5125,"count":49311},{"bufferView":22,"type":"VEC3","componentType":5126,"count":8552},{"bufferView":23,"type":"VEC2","componentType":5126,"count":8552},{"bufferView":24,"type":"VEC3","componentType":5126,"count":4034,"min":[0.02769782394170761,0.10404999554157257,-0.11083181947469711],"max":[0.038819849491119388,0.14694999158382417,-0.06755000352859497]},{"bufferView":25,"type":"SCALAR","componentType":5125,"count":24192},{"bufferView":26,"type":"VEC3","componentType":5126,"count":4034},{"bufferView":27,"type":"VEC2","componentType":5126,"count":4034},{"bufferView":28,"type":"VEC3","componentType":5126,"count":37048,"min":[-0.046717990189790729,-0.013123499229550362,-0.14914368093013764],"max":[0.06283628195524216,0.05715153366327286,0.1391245275735855]},{"bufferView":29,"type":"SCALAR","componentType":5125,"count":207984},{"bufferView":30,"type":"VEC3","componentType":5126,"count":37048},{"bufferView":31,"type":"VEC2","componentType":5126,"count":37048},{"bufferView":32,"type":"VEC3","componentType":5126,"count":1405,"min":[-0.04140033572912216,0.014468740671873093,-0.1453431248664856],"max":[0.053658194839954379,0.16499507427215577,0.042799003422260287]},{"bufferView":33,"type":"SCALAR","componentType":5125,"count":6714},{"bufferView":34,"type":"VEC3","componentType":5126,"count":1405},{"bufferView":35,"type":"VEC2","componentType":5126,"count":1405},{"bufferView":36,"type":"VEC3","componentType":5126,"count":2938,"min":[-0.0423395149409771,0.013746516779065133,-0.02120339311659336],"max":[0.05782049894332886,0.07519412785768509,0.131289541721344]},{"bufferView":37,"type":"SCALAR","componentType":5125,"count":15612},{"bufferView":38,"type":"VEC3","componentType":5126,"count":2938},{"bufferView":39,"type":"VEC2","componentType":5126,"count":2938},{"bufferView":40,"type":"VEC3","componentType":5126,"count":36421,"min":[-0.04559594392776489,0.00360035989433527,-0.14596055448055268],"max":[0.06154097616672516,0.03264195844531059,0.13614137470722199]},{"bufferView":41,"type":"SCALAR","componentType":5125,"count":182952},{"bufferView":42,"type":"VEC3","componentType":5126,"count":36421},{"bufferView":43,"type":"VEC2","componentType":5126,"count":36421},{"bufferView":44,"type":"VEC2","componentType":5126,"count":36421},{"bufferView":45,"type":"VEC3","componentType":5126,"count":84123,"min":[-0.04233128949999809,0.015440060757100582,-0.12992063164710999],"max":[0.053754519671201709,0.16542668640613557,0.03932731971144676]},{"bufferView":46,"type":"SCALAR","componentType":5125,"count":398640},{"bufferView":47,"type":"VEC3","componentType":5126,"count":84123},{"bufferView":48,"type":"VEC2","componentType":5126,"count":84123},{"bufferView":49,"type":"VEC2","componentType":5126,"count":84123},{"bufferView":50,"type":"VEC3","componentType":5126,"count":2034,"min":[-0.04111867770552635,0.004775604698807001,-0.1433611959218979],"max":[0.05542687326669693,0.04992897808551788,0.13094466924667359]},{"bufferView":51,"type":"SCALAR","componentType":5125,"count":12192},{"bufferView":52,"type":"VEC3","componentType":5126,"count":2034},{"bufferView":53,"type":"VEC2","componentType":5126,"count":2034},{"bufferView":54,"type":"VEC3","componentType":5126,"count":25833,"min":[-0.029817121103405954,0.060123927891254428,-0.0535164549946785],"max":[0.04028485715389252,0.14823393523693086,0.027923032641410829]},{"bufferView":55,"type":"SCALAR","componentType":5125,"count":147456},{"bufferView":56,"type":"VEC3","componentType":5126,"count":25833},{"bufferView":57,"type":"VEC2","componentType":5126,"count":25833},{"bufferView":58,"type":"VEC2","componentType":5126,"count":25833},{"bufferView":59,"type":"VEC2","componentType":5126,"count":25833},{"bufferView":60,"type":"VEC3","componentType":5126,"count":5299,"min":[-0.04044798016548157,0.01463282946497202,-0.14419753849506379],"max":[0.05336222052574158,0.16411256790161134,0.042775820940732959]},{"bufferView":61,"type":"SCALAR","componentType":5125,"count":28860},{"bufferView":62,"type":"VEC3","componentType":5126,"count":5299},{"bufferView":63,"type":"VEC2","componentType":5126,"count":5299},{"bufferView":64,"type":"VEC2","componentType":5126,"count":5299},{"bufferView":65,"type":"VEC2","componentType":5126,"count":5299},{"bufferView":66,"type":"VEC2","componentType":5126,"count":5299},{"bufferView":67,"type":"VEC2","componentType":5126,"count":5299},{"bufferView":68,"type":"VEC2","componentType":5126,"count":5299}],"materials":[{"pbrMetallicRoughness":{"metallicFactor":0.5,"roughnessFactor":0.5}},{"name":"HeelPanel","emissiveFactor":[0.0,0.0,0.0],"alphaMode":"OPAQUE","doubleSided":false,"pbrMetallicRoughness":{"baseColorFactor":[1.0,1.0,1.0,1.0],"metallicFactor":1.0,"roughnessFactor":1.0}},{"name":"saddlemat","emissiveFactor":[0.0,0.0,0.0],"alphaMode":"OPAQUE","doubleSided":false,"pbrMetallicRoughness":{"baseColorFactor":[1.0,1.0,1.0,1.0],"metallicFactor":1.0,"roughnessFactor":1.0}},{"name":"PLACARD","emissiveFactor":[0.0,0.0,0.0],"alphaMode":"OPAQUE","doubleSided":false,"pbrMetallicRoughness":{"baseColorFactor":[1.0,1.0,1.0,1.0],"metallicFactor":1.0,"roughnessFactor":1.0}},{"name":"LACE","emissiveFactor":[0.0,0.0,0.0],"alphaMode":"OPAQUE","doubleSided":false,"pbrMetallicRoughness":{"baseColorFactor":[1.0,1.0,1.0,1.0],"metallicFactor":1.0,"roughnessFactor":1.0}},{"name":"tongue","emissiveFactor":[0.0,0.0,0.0],"alphaMode":"OPAQUE","doubleSided":false,"pbrMetallicRoughness":{"baseColorFactor":[1.0,1.0,1.0,1.0],"metallicFactor":1.0,"roughnessFactor":1.0}},{"name":"PIPING","emissiveFactor":[0.0,0.0,0.0],"alphaMode":"OPAQUE","doubleSided":false,"pbrMetallicRoughness":{"baseColorFactor":[1.0,1.0,1.0,1.0],"metallicFactor":1.0,"roughnessFactor":1.0}},{"name":"Disc","emissiveFactor":[0.0,0.0,0.0],"alphaMode":"OPAQUE","doubleSided":false,"pbrMetallicRoughness":{"baseColorFactor":[1.0,1.0,1.0,1.0],"metallicFactor":1.0,"roughnessFactor":1.0}},{"name":"ToeCapMold","emissiveFactor":[0.0,0.0,0.0],"alphaMode":"OPAQUE","doubleSided":false,"pbrMetallicRoughness":{"baseColorFactor":[1.0,1.0,1.0,1.0],"metallicFactor":1.0,"roughnessFactor":1.0}},{"name":"toePanel","emissiveFactor":[0.0,0.0,0.0],"alphaMode":"OPAQUE","doubleSided":false,"pbrMetallicRoughness":{"baseColorFactor":[1.0,1.0,1.0,1.0],"metallicFactor":1.0,"roughnessFactor":1.0}},{"name":"weltStitch","emissiveFactor":[0.0,0.0,0.0],"alphaMode":"OPAQUE","doubleSided":false,"pbrMetallicRoughness":{"baseColorFactor":[1.0,1.0,1.0,1.0],"metallicFactor":1.0,"roughnessFactor":1.0}},{"name":"lambert1","emissiveFactor":[0.0,0.0,0.0],"alphaMode":"OPAQUE","doubleSided":false,"pbrMetallicRoughness":{"baseColorFactor":[1.0,1.0,1.0,1.0],"metallicFactor":1.0,"roughnessFactor":1.0}},{"name":"inSole","emissiveFactor":[0.0,0.0,0.0],"alphaMode":"OPAQUE","doubleSided":false,"pbrMetallicRoughness":{"baseColorFactor":[1.0,1.0,1.0,1.0],"metallicFactor":1.0,"roughnessFactor":1.0}},{"name":"steel","emissiveFactor":[0.0,0.0,0.0],"alphaMode":"OPAQUE","doubleSided":false,"pbrMetallicRoughness":{"baseColorFactor":[1.0,1.0,1.0,1.0],"metallicFactor":1.0,"roughnessFactor":1.0}},{"name":"LINER","emissiveFactor":[0.0,0.0,0.0],"alphaMode":"OPAQUE","doubleSided":false,"pbrMetallicRoughness":{"baseColorFactor":[1.0,1.0,1.0,1.0],"metallicFactor":1.0,"roughnessFactor":1.0}}]}